Coordinates
version=1
nRows=12
nColumns=24
inDegrees=yes

Units are S.I. units (second, meters, Newtons, ...)
Angles are in degrees.

endheader
time	pelvis_tilt	pelvis_list	pelvis_rotation	pelvis_tx	pelvis_ty	pelvis_tz	hip_flexion_r	hip_adduction_r	hip_rotation_r	knee_angle_r	ankle_angle_r	subtalar_angle_r	mtp_angle_r	hip_flexion_l	hip_adduction_l	hip_rotation_l	knee_angle_l	ankle_angle_l	subtalar_angle_l	mtp_angle_l	lumbar_extension	lumbar_bending	lumbar_rotation
      5.63000000	      1.07406169	     -5.70040507	     -1.79235197	      2.27262722	      0.70911706	     -0.24004294	      0.11085972	     12.24544789	     24.34003874	     -4.69392109	      7.99327261	    -18.30502602	      0.00000000	     24.07924034	     -3.72247306	     -0.58450816	    -65.27208002	      3.61663971	    -12.26672296	      0.00000000	    -15.45491874	      7.72551133	     -3.41105612
      5.64000000	      0.89274462	     -5.37416848	     -2.59966923	      2.28385523	      0.71039155	     -0.23892776	     -0.75742601	     11.87665697	     23.22529920	     -4.57705998	      9.46445065	    -15.71446518	      0.00000000	     25.53983952	     -3.81642513	     -0.73889860	    -63.33848243	      4.69251851	    -11.74591352	      0.00000000	    -15.73308545	      6.88487123	     -2.22686482
      5.65000000	      0.57871372	     -4.97239036	     -3.29061698	      2.29501345	      0.71095716	     -0.23828567	     -1.78954128	     11.25081602	     23.54476880	     -3.87291826	      9.99147427	    -15.07475242	      0.00000000	     26.90052332	     -3.83212855	     -1.09792262	    -60.78290974	      5.30257322	    -12.00196085	      0.00000000	    -15.84405997	      6.06594084	     -1.28073692
      5.66000000	      0.36298183	     -4.52088447	     -3.90570183	      2.30594368	      0.71121233	     -0.23804226	     -2.94571581	     10.49955933	     24.11952137	     -3.08226089	     10.48794030	    -14.81815031	      0.00000000	     27.89092616	     -3.74969218	     -1.57247302	    -57.57891381	      5.46977152	    -12.84319169	      0.00000000	    -16.15977229	      5.26482659	     -0.39852660
      5.67000000	      0.33015628	     -4.04957336	     -4.42410455	      2.31690824	      0.71127851	     -0.23808337	     -4.41067462	      9.60942644	     25.36150613	     -2.04324155	     10.52467268	    -15.56560013	      0.00000000	     28.40451192	     -3.58012350	     -2.04968254	    -53.78654474	      5.47385396	    -13.69521770	      0.00000000	    -16.69511001	      4.49277004	      0.19276185
      5.68000000	      0.11256532	     -3.68585246	     -4.91865671	      2.32782580	      0.71068851	     -0.23830246	     -5.61188782	      8.82694958	     26.80482593	     -1.09415857	     10.45458977	    -16.74210682	      0.00000000	     28.91892769	     -3.47062271	     -2.39781347	    -49.57798528	      5.37805861	    -14.44281821	      0.00000000	    -17.00965816	      3.92178892	      0.72373529
      5.69000000	     -0.29543253	     -3.50703525	     -5.44323533	      2.33869034	      0.70954110	     -0.23861235	     -6.42633271	      8.31970261	     27.85280648	     -0.51205957	     10.83404368	    -17.24484518	      0.00000000	     29.43020868	     -3.51000847	     -2.51027443	    -45.00199289	      5.25935530	    -14.93987269	      0.00000000	    -17.11038716	      3.64044626	      1.27941436
      5.70000000	     -0.25127244	     -3.32772654	     -5.79661441	      2.34987302	      0.70861082	     -0.23914681	     -7.83733024	      7.69381971	     29.32364293	      0.28443468	     10.69028065	    -18.79168702	      0.00000000	     29.13387106	     -3.38085207	     -2.27405914	    -39.92727977	      5.33271395	    -14.92355192	      0.00000000	    -17.69184777	      3.36168139	      1.47347414
      5.71000000	     -0.53092486	     -3.35489424	     -6.27344741	      2.36103468	      0.70710464	     -0.23957027	     -8.69590016	      7.42424783	     30.30814345	      0.61333357	     11.05062377	    -19.41476868	      0.00000000	     28.93539205	     -3.47773553	     -1.63846014	    -34.52182926	      5.24871436	    -14.87702063	      0.00000000	    -17.87850934	      3.36377045	      1.89177096
      5.72000000	     -0.50228193	     -3.45873305	     -6.59821963	      2.37251642	      0.70569139	     -0.24020839	     -9.93407489	      7.18790182	     31.21441762	      0.97366174	     11.35920157	    -20.14251549	      0.00000000	     28.06424801	     -3.50024413	     -0.27200317	    -28.67233047	      5.04425219	    -14.98923962	      0.00000000	    -18.36738738	      3.47500632	      2.07826748
      5.73000000	     -0.48760788	     -3.65477694	     -6.94445471	      2.38433925	      0.70404127	     -0.24073871	    -11.15017538	      7.06819051	     32.00845714	      1.21968608	     11.81470354	    -20.59899259	      0.00000000	     26.84471319	     -3.65594370	      1.85557656	    -22.42462721	      4.36061629	    -15.81061244	      0.00000000	    -18.73544166	      3.67849672	      2.27139648
      5.74000000	     -0.28111340	     -4.12249333	     -7.33004991	      2.39635763	      0.70238289	     -0.24105218	    -12.56998341	      7.24573617	     32.70249671	      1.30547105	     12.26874480	    -20.80421458	      0.00000000	     25.08477127	     -4.23069117	      4.87942178	    -15.89277963	      2.88625288	    -18.01669187	      0.00000000	    -19.32298023	      4.13710657	      2.63207488
